# xmcd
#
# Track frame offsets: 
#        150
#        15566
#        26615
#        41345
#        52985
#        67158
#        78628
#        92190
#        101683
#        114250
#        128995
#        143893
#
# Disc length: 2090 seconds
#
# Revision: 4
# Processed by: cddbd v1.5.2PL0 Copyright (c) Steve Scherf et al.
# Submitted via: ExactAudioCopyFreeDBPlugin 1.0
#
DISCID=9e08280c
DTITLE=Johnny Cash - The Best of Johnny Cash (The Millennium Collectio
DTITLE=n)
DYEAR=2002
DGENRE=Country
TTITLE0=The Night Hank Williams Came to Town
TTITLE1=Cry, Cry, Cry
TTITLE2=Long Black Veil
TTITLE3=I Walk the Line
TTITLE4=Tennessee Flat Top Box
TTITLE5=Get Rhythm
TTITLE6=I Still Miss Someone
TTITLE7=Blue Train
TTITLE8=Folsom Prison Blues
TTITLE9=Home of the Blues
TTITLE10=Cat's in the Cradle
TTITLE11=Wanted Man
EXTD=
EXTT0=
EXTT1=
EXTT2=
EXTT3=
EXTT4=
EXTT5=
EXTT6=
EXTT7=
EXTT8=
EXTT9=
EXTT10=
EXTT11=
PLAYORDER=
